<svg xmlns="http://www.w3.org/2000/svg" width="33" height="33" viewBox="0 0 33 33"><defs><style>.a,.c{fill:#2f1283;}.a{opacity:0;}.b{fill:#ff3c88;}</style></defs><rect class="a" width="33" height="33"/><rect class="b" width="5" height="10" transform="translate(14 19)"/><path class="c" d="M26.953,13.246,16.351,2.411a1.375,1.375,0,0,0-1.953,0L3.8,13.26A2.75,2.75,0,0,0,3,15.226V26.748A2.75,2.75,0,0,0,5.6,29.5H9.875V17.123a1.375,1.375,0,0,1,1.375-1.375H19.5a1.375,1.375,0,0,1,1.375,1.375V29.5h4.276a2.75,2.75,0,0,0,2.6-2.75V15.226a2.846,2.846,0,0,0-.8-1.98Z" transform="translate(1.125 0.752)"/></svg>