<svg xmlns="http://www.w3.org/2000/svg" width="33" height="33" viewBox="0 0 33 33"><defs><style>.a,.b{fill:#d8e0ef;}.a{opacity:0;}</style></defs><rect class="a" width="33" height="33"/><path class="b" d="M11.25,3H5.75A2.75,2.75,0,0,0,3,5.75v5.5A2.75,2.75,0,0,0,5.75,14h5.5A2.75,2.75,0,0,0,14,11.25V5.75A2.75,2.75,0,0,0,11.25,3Z" transform="translate(1.125 1.125)"/><path class="b" d="M21.25,3h-5.5A2.75,2.75,0,0,0,13,5.75v5.5A2.75,2.75,0,0,0,15.75,14h5.5A2.75,2.75,0,0,0,24,11.25V5.75A2.75,2.75,0,0,0,21.25,3Z" transform="translate(4.875 1.125)"/><path class="b" d="M11.25,13H5.75A2.75,2.75,0,0,0,3,15.75v5.5A2.75,2.75,0,0,0,5.75,24h5.5A2.75,2.75,0,0,0,14,21.25v-5.5A2.75,2.75,0,0,0,11.25,13Z" transform="translate(1.125 4.875)"/><path class="b" d="M21.25,13h-5.5A2.75,2.75,0,0,0,13,15.75v5.5A2.75,2.75,0,0,0,15.75,24h5.5A2.75,2.75,0,0,0,24,21.25v-5.5A2.75,2.75,0,0,0,21.25,13Z" transform="translate(4.875 4.875)"/></svg>