<svg xmlns="http://www.w3.org/2000/svg" width="33" height="33" viewBox="0 0 33 33"><defs><style>.a,.b{fill:#d8e0ef;}.a{opacity:0;}</style></defs><rect class="a" width="33" height="33"/><path class="b" d="M27.087,20.163l-2.475-2.489V11.542a9.433,9.433,0,0,0-8-9.46A9.267,9.267,0,0,0,6.132,11.253v6.421L3.657,20.163A2.255,2.255,0,0,0,5.252,24h4.62v.468a5.28,5.28,0,0,0,5.5,5.033,5.28,5.28,0,0,0,5.5-5.033V24h4.62a2.255,2.255,0,0,0,1.595-3.836Zm-8.965,4.3a2.585,2.585,0,0,1-2.75,2.282,2.585,2.585,0,0,1-2.75-2.282V24h5.5Z" transform="translate(1.128 0.751)"/></svg>