<svg xmlns="http://www.w3.org/2000/svg" width="24" height="24" viewBox="0 0 24 24"><defs><style>.a,.b{fill:#0e2045;}.a{opacity:0;}</style></defs><rect class="a" width="24" height="24"/><path class="b" d="M20.12,6.71,17.29,3.88A3,3,0,0,0,15.17,3H8.83a3,3,0,0,0-2.12.88L3.88,6.71A3,3,0,0,0,3,8.83V18a3,3,0,0,0,3,3H18a3,3,0,0,0,3-3V8.83a3,3,0,0,0-.88-2.12Zm-12-1.42A1.05,1.05,0,0,1,8.83,5h6.34a1.05,1.05,0,0,1,.71.29L17.59,7H6.41ZM18,19H6a1,1,0,0,1-1-1V9H19v9A1,1,0,0,1,18,19Z"/><path class="b" d="M15,11a1,1,0,0,0-1,1,2,2,0,0,1-4,0,1,1,0,0,0-2,0,4,4,0,0,0,8,0A1,1,0,0,0,15,11Z"/></svg>