<svg xmlns="http://www.w3.org/2000/svg" width="14" height="14" viewBox="0 0 14 14"><defs><style>.a,.b{fill:#fff;}.a{opacity:0;}</style></defs><g transform="translate(-0.846 -0.846)"><g transform="translate(0.424 0.424)"><rect class="a" width="14" height="14" transform="translate(0.422 0.422)"/><path class="b" d="M14.088,5.4,12.255,3.57A1.943,1.943,0,0,0,10.882,3H6.776A1.943,1.943,0,0,0,5.4,3.57L3.57,5.4A1.943,1.943,0,0,0,3,6.776v5.939a1.943,1.943,0,0,0,1.943,1.943h7.772a1.943,1.943,0,0,0,1.943-1.943V6.776a1.943,1.943,0,0,0-.57-1.373Zm-7.772-.92a.68.68,0,0,1,.46-.188h4.106a.68.68,0,0,1,.46.188l1.107,1.107H5.208Zm6.4,8.879H4.943a.648.648,0,0,1-.648-.648V6.886h9.067v5.829A.648.648,0,0,1,12.715,13.362Z" transform="translate(-1.407 -1.407)"/><path class="b" d="M12.533,11a.648.648,0,0,0-.648.648,1.3,1.3,0,1,1-2.591,0,.648.648,0,1,0-1.3,0,2.591,2.591,0,0,0,5.181,0A.648.648,0,0,0,12.533,11Z" transform="translate(-3.169 -4.226)"/></g></g></svg>