<svg xmlns="http://www.w3.org/2000/svg" width="30" height="30" viewBox="0 0 30 30"><defs><style>.a{opacity:0;}.b{fill:#2f1283;}.c{fill:#ff3c88;}</style></defs><g transform="translate(0.387 0.387)"><rect class="a" width="30" height="30" transform="translate(-0.387 -0.387)"/><path class="b" d="M10.306,3H5.435A2.435,2.435,0,0,0,3,5.435v4.871a2.435,2.435,0,0,0,2.435,2.435h4.871a2.435,2.435,0,0,0,2.435-2.435V5.435A2.435,2.435,0,0,0,10.306,3ZM5.435,10.306V5.435h4.871v4.871Z" transform="translate(0.653 0.653)"/><path class="c" d="M20.306,3H15.435A2.435,2.435,0,0,0,13,5.435v4.871a2.435,2.435,0,0,0,2.435,2.435h4.871a2.435,2.435,0,0,0,2.435-2.435V5.435A2.435,2.435,0,0,0,20.306,3Zm-4.871,7.306V5.435h4.871v4.871Z" transform="translate(2.831 0.653)"/><path class="c" d="M10.306,13H5.435A2.435,2.435,0,0,0,3,15.435v4.871a2.435,2.435,0,0,0,2.435,2.435h4.871a2.435,2.435,0,0,0,2.435-2.435V15.435A2.435,2.435,0,0,0,10.306,13ZM5.435,20.306V15.435h4.871v4.871Z" transform="translate(0.653 2.831)"/><path class="b" d="M20.306,13H15.435A2.435,2.435,0,0,0,13,15.435v4.871a2.435,2.435,0,0,0,2.435,2.435h4.871a2.435,2.435,0,0,0,2.435-2.435V15.435A2.435,2.435,0,0,0,20.306,13Zm-4.871,7.306V15.435h4.871v4.871Z" transform="translate(2.831 2.831)"/></g></svg>