<svg xmlns="http://www.w3.org/2000/svg" width="50" height="50" viewBox="0 0 50 50"><defs><style>.a{fill:#dedede;opacity:0;}.b{fill:#2f1283;}.c{fill:#ff3c88;}</style></defs><rect class="a" width="50" height="50"/><path class="b" d="M34.614,41.219l-4.88-18.825A12.347,12.347,0,0,0,32.5,14.55a12.677,12.677,0,0,0-25.353,0A12.348,12.348,0,0,0,9.98,22.436L5.036,41.219a2.08,2.08,0,0,0,.777,2.2,2.13,2.13,0,0,0,2.349.123l11.261-6.547,12,6.568a1.938,1.938,0,0,0,1.078.272,2.121,2.121,0,0,0,1.717-.784A2.076,2.076,0,0,0,34.614,41.219ZM19.825,6.183a8.367,8.367,0,1,1-8.451,8.367,8.409,8.409,0,0,1,8.451-8.367Zm.655,26.585a2.131,2.131,0,0,0-2.113,0l-7.923,4.6,3.042-11.922a12.66,12.66,0,0,0,12.508,0l3.233,12.111Z" transform="translate(5.175 2.083)"/><circle class="c" cx="3.5" cy="3.5" r="3.5" transform="translate(21.5 13.317)"/></svg>