<svg xmlns="http://www.w3.org/2000/svg" width="30" height="30" viewBox="0 0 30 30"><defs><style>.a{opacity:0;}.b{fill:#2f1283;}.c{fill:#ff3c88;}</style></defs><g transform="translate(0.375 0.375)"><rect class="a" width="30" height="30" transform="translate(-0.375 -0.375)"/><path class="b" d="M16.758,6H12.979L11.59,8.438h5.155a.609.609,0,0,1,.219.524v8.7a.634.634,0,0,1-.207.524H13.308l-1.4,2.438h4.875a2.815,2.815,0,0,0,2.62-2.962v-8.7A2.815,2.815,0,0,0,16.758,6Z" transform="translate(4.973 1.313)"/><path class="b" d="M4.438,17.664v-8.7a.646.646,0,0,1,.207-.524H8.095L9.472,6H4.6A2.815,2.815,0,0,0,2,8.962v8.7a2.815,2.815,0,0,0,2.645,2.962H8.424l1.389-2.438H4.658a.609.609,0,0,1-.219-.524Z" transform="translate(2.874 1.313)"/><path class="c" d="M9.655,23.5a1.219,1.219,0,0,1-1.06-1.828l3.839-6.7H7.217a1.219,1.219,0,0,1-1.048-1.828L11.044,4.61a1.223,1.223,0,1,1,2.121,1.219l-3.851,6.7H14.53a1.219,1.219,0,0,1,1.048,1.828L10.7,22.892A1.219,1.219,0,0,1,9.655,23.5Z" transform="translate(3.752 0.874)"/></g></svg>