<svg xmlns="http://www.w3.org/2000/svg" width="30" height="30" viewBox="0 0 30 30"><defs><style>.a{opacity:0;}.b{fill:#2f1283;}.c{fill:#ff3c88;}</style></defs><g transform="translate(0.185 0.185)"><rect class="a" width="30" height="30" transform="translate(29.815 29.815) rotate(180)"/><path class="b" d="M13.173,7a6.173,6.173,0,0,0-3.7,11.111V23.05a2.469,2.469,0,0,0,2.469,2.469h2.469a2.469,2.469,0,0,0,2.469-2.469V18.111A6.173,6.173,0,0,0,13.173,7Zm1.852,9.371a1.235,1.235,0,0,0-.617,1.074V23.05H11.938V17.445a1.235,1.235,0,0,0-.617-1.074,3.7,3.7,0,1,1,3.7,0Z" transform="translate(1.642 1.642)"/><path class="c" d="M12.235,6.938A1.235,1.235,0,0,0,13.469,5.7V3.235a1.235,1.235,0,0,0-2.469,0V5.7A1.235,1.235,0,0,0,12.235,6.938Z" transform="translate(2.581 0.469)"/><path class="c" d="M21.7,11H19.235a1.235,1.235,0,1,0,0,2.469H21.7A1.235,1.235,0,1,0,21.7,11Z" transform="translate(4.223 2.581)"/><path class="c" d="M5.7,11H3.235a1.235,1.235,0,0,0,0,2.469H5.7A1.235,1.235,0,0,0,5.7,11Z" transform="translate(0.469 2.581)"/><path class="c" d="M8.4,6.818,6.62,5.065A1.249,1.249,0,0,0,4.9,6.88L6.682,8.6A1.236,1.236,0,1,0,8.4,6.818Z" transform="translate(1.059 1.108)"/><path class="c" d="M19.927,5.118a1.235,1.235,0,0,0-1.741,0L16.408,6.81a1.244,1.244,0,0,0,1.741,1.778l1.778-1.716a1.235,1.235,0,0,0,0-1.753Z" transform="translate(3.765 1.117)"/></g></svg>