<svg xmlns="http://www.w3.org/2000/svg" width="30" height="30" viewBox="0 0 30 30"><defs><style>.a{opacity:0;}.b{fill:#2f1283;}.c{fill:#ff3c88;}</style></defs><g transform="translate(-0.628 -0.628)"><g transform="translate(0.265 0.265)"><rect class="a" width="30" height="30" transform="translate(30.363 0.363) rotate(90)"/><path class="b" d="M20.888,2H7.9A3.9,3.9,0,0,0,4,5.9V24.084a3.9,3.9,0,0,0,3.9,3.9H20.888a3.9,3.9,0,0,0,3.9-3.9V5.9A3.9,3.9,0,0,0,20.888,2Zm1.3,22.084a1.3,1.3,0,0,1-1.3,1.3H7.9a1.3,1.3,0,0,1-1.3-1.3V5.9A1.3,1.3,0,0,1,7.9,4.6H20.888a1.3,1.3,0,0,1,1.3,1.3Z" transform="translate(0.97 0.372)"/><path class="c" d="M16.295,6H9.8a1.3,1.3,0,1,0,0,2.6h6.5a1.3,1.3,0,1,0,0-2.6Z" transform="translate(2.316 1.568)"/><path class="c" d="M16.295,6H9.8a1.3,1.3,0,1,0,0,2.6h6.5a1.3,1.3,0,1,0,0-2.6Z" transform="translate(2.316 14.568)"/></g></g></svg>