<svg xmlns="http://www.w3.org/2000/svg" width="30" height="30" viewBox="0 0 30 30"><defs><style>.a{opacity:0;}.b{fill:#2f1283;}.c{fill:#ff3c88;}</style></defs><g transform="translate(0.425 0.425)"><rect class="a" width="30" height="30" transform="translate(-0.425 29.575) rotate(-90)"/><path class="b" d="M20.235,12.738,14.43,5.45a1.218,1.218,0,1,0-1.895,1.53L17.721,13.5,12.28,20.025a1.212,1.212,0,0,0,1.87,1.543l6.073-7.288a1.215,1.215,0,0,0,.012-1.543Z" transform="translate(2.575 1.072)"/><path class="c" d="M7.43,5.454a1.242,1.242,0,1,0-1.955,1.53l5.247,6.522L5.28,20.017a1.216,1.216,0,0,0,1.87,1.555l6.073-7.288a1.215,1.215,0,0,0,0-1.543Z" transform="translate(1.073 1.068)"/></g></svg>