<svg xmlns="http://www.w3.org/2000/svg" width="50" height="50" viewBox="0 0 50 50"><defs><style>.a{opacity:0;}.b{fill:#ff3c88;}.c{fill:#2f1283;}</style></defs><g transform="translate(0.166 0.166)"><rect class="a" width="50" height="50" transform="translate(-0.166 -0.166)"/><path class="b" d="M22.487,16H10.07a2.07,2.07,0,1,0,0,4.139H22.487a2.07,2.07,0,0,0,0-4.139Z" transform="translate(8.556 17.112)"/><path class="b" d="M10.07,16.139h6.209a2.07,2.07,0,0,0,0-4.139H10.07a2.07,2.07,0,1,0,0,4.139Z" transform="translate(8.556 12.834)"/><path class="c" d="M36.574,15.1,25.316,2.683A2.07,2.07,0,0,0,23.785,2H9.3A5.236,5.236,0,0,0,4,7.174V38.217a5.236,5.236,0,0,0,5.3,5.174H31.814a5.236,5.236,0,0,0,5.3-5.174V16.487a2.07,2.07,0,0,0-.538-1.387ZM24.7,8.209l5.67,6.209H26.227A1.635,1.635,0,0,1,24.7,12.658Zm7.119,31.043H9.3a1.1,1.1,0,0,1-1.159-1.035V7.174A1.1,1.1,0,0,1,9.3,6.139H20.556v6.519a5.774,5.774,0,0,0,5.608,5.9h6.809v19.66a1.1,1.1,0,0,1-1.159,1.035Z" transform="translate(4.278 2.139)"/></g></svg>