<svg xmlns="http://www.w3.org/2000/svg" width="34.581" height="34.654" viewBox="0 0 34.581 34.654"><defs><style>.a{fill:#ff3c88;stroke:#ff3c88;}.a,.b{stroke-width:0.5px;}.b{fill:#2f1283;stroke:#2f1283;}</style></defs><g transform="translate(-0.012 0.333)"><g transform="translate(0.314)"><circle class="a" cx="1.329" cy="1.329" r="1.329" transform="translate(22.73 26.095)"/><circle class="a" cx="1.329" cy="1.329" r="1.329" transform="translate(19.673 8.948)"/><path class="b" d="M33.014,20.778h1.329V12.8h-3.39a2.658,2.658,0,0,1-1.225-5.018l1.132-.59L27.476,0,.345,12.8l0,.006H.314v7.976H1.643a2.659,2.659,0,1,1,0,5.317H.314v7.976H34.343V26.1H33.014a2.659,2.659,0,1,1,0-5.317ZM18.4,7.219a1.328,1.328,0,0,0,2.4-1.133L26.2,3.54l1.231,2.618A5.311,5.311,0,0,0,26.352,12.8H6.565ZM31.685,28.586v2.827H25.7a1.329,1.329,0,1,0-2.658,0H2.973V28.586a5.318,5.318,0,0,0,0-10.3V15.461H23.044a1.329,1.329,0,0,0,2.658,0h5.982v2.827a5.318,5.318,0,0,0,0,10.3Z" transform="translate(-0.314)"/><circle class="a" cx="1.329" cy="1.329" r="1.329" transform="translate(22.73 18.12)"/><circle class="a" cx="1.329" cy="1.329" r="1.329" transform="translate(22.73 22.108)"/></g></g></svg>