<svg xmlns="http://www.w3.org/2000/svg" width="30" height="30" viewBox="0 0 30 30"><defs><style>.a{opacity:0;}.b{fill:#2f1283;}.c{fill:#ff3c88;}</style></defs><g transform="translate(0.333 0.333)"><g transform="translate(-0.488 -0.488)"><rect class="a" width="30" height="30" transform="translate(0.156 0.156)"/><path class="b" d="M14.9,26.118a2.261,2.261,0,0,1-1.585-.651L5.439,17.578a1.229,1.229,0,0,1-.356-.75L4,5.34A1.234,1.234,0,0,1,5.34,4L16.829,5.082a1.229,1.229,0,0,1,.75.356l7.888,7.876a2.236,2.236,0,0,1,0,3.158l-8.994,8.994a2.236,2.236,0,0,1-1.573.651ZM7.527,16.153,14.9,23.525l8.662-8.662L16.19,7.491l-9.6-.9Z" transform="translate(1.325 1.325)"/><circle class="c" cx="2.5" cy="2.5" r="2.5" transform="translate(11.156 11.156)"/></g></g></svg>