<svg xmlns="http://www.w3.org/2000/svg" width="50" height="50" viewBox="0 0 50 50"><defs><style>.a{opacity:0;}.b{fill:#2f1283;}.c{fill:#ff3c88;}</style></defs><rect class="a" width="50" height="50"/><path class="b" d="M31.083,14.381H29V10.443a8.333,8.333,0,0,0-16.667,0v3.938H10.25A6.25,6.25,0,0,0,4,20.631V37.3a6.25,6.25,0,0,0,6.25,6.25H31.083a6.25,6.25,0,0,0,6.25-6.25V20.631A6.25,6.25,0,0,0,31.083,14.381ZM16.5,10.443a4.292,4.292,0,0,1,4.167-4.4,4.292,4.292,0,0,1,4.167,4.4v3.938H16.5ZM33.167,37.3a2.083,2.083,0,0,1-2.083,2.083H10.25A2.083,2.083,0,0,1,8.167,37.3V20.631a2.083,2.083,0,0,1,2.083-2.083H31.083a2.083,2.083,0,0,1,2.083,2.083Z" transform="translate(4.333 2.286)"/><path class="c" d="M15.25,12a6.25,6.25,0,1,0,6.25,6.25A6.25,6.25,0,0,0,15.25,12Zm0,8.333a2.083,2.083,0,1,1,2.083-2.083A2.083,2.083,0,0,1,15.25,20.333Z" transform="translate(9.75 13)"/></svg>