<svg xmlns="http://www.w3.org/2000/svg" width="30" height="30" viewBox="0 0 30 30"><defs><style>.a{opacity:0;}.b{fill:#2f1283;}.c{fill:#ff3c88;}</style></defs><g transform="translate(0.224 0.224)"><g transform="translate(-0.039 -0.039)"><rect class="a" width="30" height="30" transform="translate(-0.185 -0.185)"/><path class="b" d="M22.942,5H5.7A3.7,3.7,0,0,0,2,8.7v9.855a3.7,3.7,0,0,0,3.7,3.7H22.942a3.7,3.7,0,0,0,3.7-3.7V8.7A3.7,3.7,0,0,0,22.942,5ZM4.464,8.7A1.232,1.232,0,0,1,5.7,7.464H22.942A1.232,1.232,0,0,1,24.174,8.7V9.928H4.464Zm19.71,9.855a1.232,1.232,0,0,1-1.232,1.232H5.7a1.232,1.232,0,0,1-1.232-1.232V12.391h19.71Z" transform="translate(0.496 1.192)"/><path class="c" d="M7.232,15.464h4.928a1.232,1.232,0,1,0,0-2.464H7.232a1.232,1.232,0,0,0,0,2.464Z" transform="translate(1.424 3.047)"/><path class="c" d="M15.232,15.464H17.7A1.232,1.232,0,0,0,17.7,13H15.232a1.232,1.232,0,1,0,0,2.464Z" transform="translate(3.279 3.047)"/></g></g></svg>