<svg xmlns="http://www.w3.org/2000/svg" width="50" height="50" viewBox="0 0 50 50"><defs><style>.a{opacity:0;}.b{fill:#2f1283;}.c{fill:#ff3c88;}</style></defs><g transform="translate(0.045 0.045)"><rect class="a" width="50" height="50" transform="translate(-0.045 -0.045)"/><path class="b" d="M38.25,8.636A2.088,2.088,0,1,0,35.3,5.683L22.237,18.8l-6.863-6.883a6.34,6.34,0,1,0-2.953,2.932L19.3,21.716l-6.842,6.863a6.388,6.388,0,1,0,2.911,2.995ZM9.739,11.318a2.08,2.08,0,1,1,2.08-2.08A2.08,2.08,0,0,1,9.739,11.318Zm0,24.955a2.08,2.08,0,1,1,2.08-2.08A2.08,2.08,0,0,1,9.739,36.273Z" transform="translate(3.778 3.239)"/><path class="c" d="M17.06,13.607a2.088,2.088,0,0,0-2.953,2.953l10.4,10.4a2.088,2.088,0,1,0,2.953-2.953Z" transform="translate(14.57 14.03)"/></g></svg>