<svg xmlns="http://www.w3.org/2000/svg" width="30" height="30" viewBox="0 0 30 30"><defs><style>.a{opacity:0;}.b{fill:#2f1283;}.c{fill:#ff3c88;}</style></defs><g transform="translate(0.426 0.426)"><rect class="a" width="30" height="30" transform="translate(-0.426 -0.426)"/><path class="b" d="M9.858,12.716A4.858,4.858,0,1,0,5,7.858,4.858,4.858,0,0,0,9.858,12.716Zm0-7.287A2.429,2.429,0,1,1,7.429,7.858,2.429,2.429,0,0,1,9.858,5.429Z" transform="translate(1.073 0.644)"/><path class="c" d="M17.644,14.287A3.644,3.644,0,1,0,14,10.644,3.644,3.644,0,0,0,17.644,14.287Zm0-4.858a1.215,1.215,0,1,1-1.215,1.215A1.215,1.215,0,0,1,17.644,9.429Z" transform="translate(3.003 1.502)"/><path class="b" d="M20.218,14.213A6.073,6.073,0,0,0,16.5,15.488,8.5,8.5,0,0,0,2,21.5a1.215,1.215,0,1,0,2.429,0,6.073,6.073,0,0,1,12.145,0A1.215,1.215,0,1,0,19,21.5a8.38,8.38,0,0,0-1.044-4.069,3.644,3.644,0,0,1,5.9,2.854,1.215,1.215,0,1,0,2.429,0A6.073,6.073,0,0,0,20.218,14.213Z" transform="translate(0.429 2.791)"/></g></svg>